<?xml version="1.0" encoding="UTF-8" standalone="no"?>
<!-- Created with Inkscape (http://www.inkscape.org/) -->

<svg
   xmlns:dc="http://purl.org/dc/elements/1.1/"
   xmlns:cc="http://creativecommons.org/ns#"
   xmlns:rdf="http://www.w3.org/1999/02/22-rdf-syntax-ns#"
   xmlns:svg="http://www.w3.org/2000/svg"
   xmlns="http://www.w3.org/2000/svg"
   xmlns:sodipodi="http://sodipodi.sourceforge.net/DTD/sodipodi-0.dtd"
   xmlns:inkscape="http://www.inkscape.org/namespaces/inkscape"
   width="214.19611mm"
   height="95.034447mm"
   viewBox="0 0 214.19611 95.034447"
   version="1.1"
   id="svg32"
   inkscape:version="0.92.3 (2405546, 2018-03-11)"
   sodipodi:docname="signature.svg">
  <defs
     id="defs26" />
  <sodipodi:namedview
     id="base"
     pagecolor="#ffffff"
     bordercolor="#666666"
     borderopacity="1.0"
     inkscape:pageopacity="0.0"
     inkscape:pageshadow="2"
     inkscape:zoom="0.70003571"
     inkscape:cx="446.35646"
     inkscape:cy="347.04229"
     inkscape:document-units="mm"
     inkscape:current-layer="layer2"
     showgrid="false"
     inkscape:window-width="1920"
     inkscape:window-height="1017"
     inkscape:window-x="565"
     inkscape:window-y="-8"
     inkscape:window-maximized="1" />
  <metadata
     id="metadata29">
    <rdf:RDF>
      <cc:Work
         rdf:about="">
        <dc:format>image/svg+xml</dc:format>
        <dc:type
           rdf:resource="http://purl.org/dc/dcmitype/StillImage" />
        <dc:title />
      </cc:Work>
    </rdf:RDF>
  </metadata>
  <g
     inkscape:groupmode="layer"
     id="layer2"
     inkscape:label="signature"
     transform="translate(-8.5903487,-107.04023)">
    <path
       style="fill:#ffffff;fill-opacity:1;fill-rule:nonzero;stroke:none;stroke-width:0.26458332"
       id="path83"
       d="m 9.6034703,163.06555 c -0.062648,-1.12752 -0.1740451,-2.24774 -0.3175006,-3.36753 -0.1193646,-0.94081 -0.1539128,-1.88917 -0.1718214,-2.83644 -0.1178031,-1.2699 -0.1579063,-2.54493 -0.2465732,-3.81692 -0.1538901,-1.71085 -0.2064308,-3.42618 -0.2472788,-5.14262 -0.048983,-1.85997 -0.024881,-3.72024 -0.017412,-5.58043 -0.033146,-2.60752 0.1834933,-5.20972 0.4304983,-7.8031 0.1423762,-1.55945 0.3529549,-3.11287 0.6343393,-4.65316 0.3617531,-1.52093 0.6805471,-3.05155 1.0641261,-4.56724 0.441033,-1.45663 0.977429,-2.88736 1.562107,-4.29257 0.538319,-1.28871 1.178734,-2.52406 1.86027,-3.74123 0.940094,-1.61421 1.961539,-3.1906 3.133354,-4.64712 0.961408,-1.17583 2.110861,-2.191 3.361975,-3.047 1.094782,-0.7067 2.250141,-1.32153 3.437631,-1.85743 0.74485,-0.2956 1.54639,-0.40127 2.334851,-0.51504 1.697833,-0.17281 3.296821,-0.34691 4.882485,0.31842 0.85543,0.34956 1.672198,0.77485 2.46475,1.24773 0.915564,0.57393 1.787554,1.19902 2.641616,1.86101 1.496181,1.20437 2.889072,2.52925 4.274063,3.85796 1.54578,1.58152 2.765758,3.44313 4.009601,5.26216 0.913776,1.30743 1.723888,2.67502 2.469563,4.08322 0.780629,1.51064 1.322787,3.13171 1.929791,4.71714 0.580734,1.55926 0.871541,3.20715 1.203058,4.83261 0.298598,1.64421 0.459513,3.31029 0.593881,4.97483 0.18142,1.45124 0.287549,2.90565 0.342239,4.36641 0.04238,1.24866 0.05326,2.49798 0.06083,3.74722 -0.01138,1.53077 2.65e-4,3.05994 -0.08733,4.58862 -0.03784,1.06584 -0.15653,2.12169 -0.2853,3.17912 -0.168299,1.10664 -0.323525,2.21437 -0.497377,3.32032 -0.08534,0.78599 -0.190715,1.56633 -0.311121,2.3476 -0.101841,0.72449 -0.248931,1.44271 -0.416198,2.15484 -0.186216,0.77591 -0.343717,1.5577 -0.526206,2.33446 -0.0787,0.277 -0.0871,0.57325 -0.215408,0.83527 -0.451458,0.92197 -2.682113,-0.0616 -2.889636,-0.0953 -0.09445,-0.0153 -0.08274,-0.17257 -0.124108,-0.25886 -0.205764,-0.50012 -0.463172,-0.9752 -0.615931,-1.49563 -0.226386,-0.55887 -0.453549,-1.12014 -0.710161,-1.66685 -0.335716,-0.77455 -0.749077,-1.5125 -1.16088,-2.24845 -0.539263,-1.00273 -1.096791,-1.99313 -1.748608,-2.92729 -0.599881,-1.06483 -1.357397,-2.02223 -2.090586,-2.99545 -1.391822,-1.9238 -2.944786,-3.72461 -4.507804,-5.50972 -2.031471,-2.34972 -4.391914,-4.37628 -6.741586,-6.39557 -1.509064,-1.29759 -3.090632,-2.50067 -4.763314,-3.57827 -1.214347,-0.80969 -2.495254,-1.50911 -3.786082,-2.18712 -0.921204,-0.48132 -1.893245,-0.84488 -2.872153,-1.18747 -0.813607,-0.24762 -1.64443,-0.44558 -2.478493,-0.61253 -0.641604,-0.12585 -1.295343,-0.14351 -1.9468,-0.15536 4.305673,0.0522 2.564404,-0.18985 1.713132,0.17444 -0.303438,0.12984 -0.552856,0.31901 -0.802755,0.52963 -0.526556,0.52861 -0.799666,1.21536 -0.981413,1.92492 -0.150604,0.69006 -0.165139,1.39873 -0.17434,2.10199 0.03154,0.72713 0.39419,1.32424 0.83069,1.87956 0.578952,0.6062 1.28571,1.07923 2.034829,1.44766 0.803519,0.33732 1.638858,0.59753 2.493794,0.76587 1.007652,0.22671 2.035206,0.27367 3.06416,0.32464 1.243942,0.0456 2.48084,0.19281 3.723616,0.26495 1.933036,0.0753 3.868672,0.0643 5.802906,0.0701 0.912691,-0.0587 1.83098,0.0582 2.743785,0.001 0.436096,-0.0273 -0.873922,0.003 -1.310855,-7.9e-4 -0.358849,-0.003 0.717733,-0.004 1.076587,-0.001 3.881218,0.0276 2.655811,-0.005 5.080733,0.081 2.43889,0.0923 4.85517,0.40577 7.272248,0.72218 1.987325,0.28511 3.974732,0.58083 5.885402,1.21045 1.313428,0.42253 2.596245,0.93754 3.734929,1.72356 0.790001,0.51787 1.471121,1.16907 2.072545,1.8925 0.486693,0.68153 0.841354,1.44853 1.09501,2.243 0.319167,1.12208 0.514128,2.27164 0.588317,3.43453 0.07619,1.09036 0.04204,2.17516 -0.06614,3.26094 -0.03929,0.76287 -0.163187,1.50403 -0.340352,2.24553 -0.141891,0.71829 -0.371134,1.41492 -0.589124,2.11253 -0.214739,0.59651 -0.453086,1.18151 -0.851588,1.6796 -0.852022,0.76591 -1.69735,0.27625 -3.113066,0.11679 -0.04829,-0.005 -0.282745,-0.49933 -0.310105,-0.55376 -0.180343,-0.55792 -0.272249,-1.14827 -0.371044,-1.72718 -0.09237,-0.83425 -0.187984,-1.66908 -0.262988,-2.50553 -0.08547,-1.03692 -0.126304,-2.07552 -0.220067,-3.11172 -0.10205,-0.93172 -0.159438,-1.8662 -0.188802,-2.80268 -0.02606,-0.93414 -0.01159,-1.86872 -0.01233,-2.80307 0.0088,-1.28311 0.0071,-2.56628 0.005,-3.84941 -0.01622,-1.1958 0.137218,-2.38646 0.273399,-3.57229 0.20741,-1.49978 0.529725,-2.98019 0.859237,-4.4569 0.243951,-1.1689 0.618556,-2.29813 1.022663,-3.41915 0.33697,-1.02985 0.877898,-1.96335 1.423556,-2.89202 0.643525,-0.9642 1.4766,-1.75758 2.374646,-2.4789 0.828556,-0.66205 1.825508,-1.01192 2.837793,-1.27819 1.708394,-0.35933 3.479634,-0.30144 5.209559,-0.11891 0.689303,0.15834 1.367078,0.40505 1.989336,0.74252 0.769818,0.36477 1.498849,0.80772 2.21102,1.2738 0.629351,0.44939 1.220433,0.9549 1.794314,1.47361 0.590939,0.62485 1.164727,1.25342 1.676569,1.94584 0.544909,0.72107 1.025218,1.48668 1.401625,2.30841 0.325922,0.68515 0.652185,1.36701 0.875279,2.0929 0.358817,0.97317 0.58112,1.98578 0.843671,2.98689 0.203452,0.69722 0.245044,1.41945 0.303663,2.13833 0.09562,1.05442 0.183671,2.10914 0.217887,3.1675 0.04227,0.87443 0.04326,1.74244 -0.0451,2.613 -0.06999,0.99063 -0.236651,1.96751 -0.417009,2.94266 -0.16124,0.92118 -0.455108,1.80954 -0.668333,2.71814 -0.226642,0.73463 -0.440219,1.47387 -0.698584,2.19828 -0.335958,0.82446 -0.594524,1.67665 -0.87548,2.52053 -0.234254,0.75998 -0.461785,1.52188 -0.70743,2.27824 -0.222231,0.66007 -0.380658,1.33296 -0.477787,2.0221 -0.05348,0.57718 -0.120703,1.16344 -0.05432,1.7416 0.115385,0.51009 0.565547,0.52471 0.970614,0.69305 0.435684,0.17023 0.903819,0.19953 1.365848,0.22253 -4.664242,0.27083 -1.887069,-0.0784 -0.796618,-0.29978 0.771572,-0.16284 1.534649,-0.36371 2.29077,-0.58702 0.595577,-0.17455 1.18827,-0.35673 1.776354,-0.55554 0.563251,-0.18898 1.115079,-0.40812 1.666918,-0.6277 0,0 2.618351,0.31234 2.618351,0.31234 v 0 c -0.547963,0.2242 -1.094973,0.45137 -1.657205,0.63759 -0.581271,0.22876 -1.187331,0.3878 -1.784643,0.56695 -0.751695,0.2496 -1.527273,0.42379 -2.295041,0.61571 -1.538521,0.29301 -2.715324,0.61354 -4.43942,0.33424 -0.472284,-0.0408 -0.940795,-0.11039 -1.379297,-0.30139 -0.499115,-0.17909 -0.884682,-0.41812 -0.984671,-0.9826 -0.0608,-0.6011 -0.0011,-1.20771 0.06043,-1.80707 0.09964,-0.70344 0.25223,-1.39424 0.478298,-2.06863 0.249668,-0.75626 0.489439,-1.51578 0.71584,-2.27936 0.28194,-0.84501 0.541679,-1.69816 0.874636,-2.52523 0.250687,-0.71729 0.464775,-1.44545 0.69242,-2.17032 0.216736,-0.90456 0.525798,-1.78501 0.683929,-2.70401 0.174271,-0.96883 0.342644,-1.9373 0.408139,-2.92129 0.0828,-0.85833 0.08748,-1.7159 0.05025,-2.57784 -0.03965,-1.05254 -0.10496,-2.10414 -0.219699,-3.15145 -0.07782,-0.70272 -0.115012,-1.41245 -0.307991,-2.09718 -0.251934,-0.99748 -0.467728,-2.00585 -0.835676,-2.96975 -0.248692,-0.70655 -0.568079,-1.38322 -0.884573,-2.06174 -0.377135,-0.80035 -0.851199,-1.54913 -1.386216,-2.2537 -0.516242,-0.67237 -1.094348,-1.28997 -1.688989,-1.89341 -0.569682,-0.50518 -1.147855,-1.00845 -1.7809,-1.43288 -0.716354,-0.453 -1.44608,-0.88581 -2.214126,-1.2463 -0.626329,-0.29556 -1.287483,-0.54889 -1.976228,-0.64563 -0.92283,-0.085 -2.722232,-0.11238 1.387988,-0.0781 0.149355,0.001 -0.298169,0.0187 -0.446931,0.032 -0.4782,0.0429 -0.461333,0.049 -0.935501,0.12638 -1.002215,0.23174 -1.993135,0.54409 -2.82898,1.16641 -0.890074,0.69217 -1.721284,1.44645 -2.364547,2.38286 -0.544629,0.91309 -1.091986,1.82525 -1.423715,2.84344 -0.409445,1.10905 -0.785675,2.22857 -1.040585,3.38518 -0.334751,1.46579 -0.650706,2.93758 -0.853945,4.42839 -0.130723,1.17659 -0.267359,2.3578 -0.266909,3.54299 -0.003,1.28311 -0.0061,2.56625 0.0016,3.84934 -7.94e-4,0.93181 0.0059,1.86363 0.02262,2.79529 0.02572,0.9306 0.08194,1.85978 0.176281,2.78613 0.09883,1.03583 0.141026,2.07329 0.221769,3.11058 0.0872,0.82938 0.184766,1.65757 0.280572,2.48561 0.09703,0.55045 0.18025,1.1194 0.38033,1.64121 0.05558,0.0953 0.130781,0.235 0.204415,0.31919 0.02817,0.0322 0.141224,0.0806 0.09847,0.0824 -0.834221,0.0355 -1.670267,-0.006 -2.50485,0.0201 -0.05422,0.002 0.10047,0.0595 0.154191,0.052 0.0667,-0.009 0.117713,-0.0655 0.17657,-0.0982 0.434732,-0.43274 0.625644,-1.00741 0.852691,-1.5654 0.209156,-0.69514 0.462259,-1.38035 0.596387,-2.09583 0.175178,-0.73015 0.289896,-1.46124 0.340759,-2.2113 0.119158,-1.06992 0.164172,-2.13959 0.07657,-3.21529 -0.08367,-1.13859 -0.247113,-2.27233 -0.585983,-3.36616 -0.276609,-0.7571 -0.611584,-1.50188 -1.10603,-2.14494 -0.596019,-0.7002 -1.276363,-1.32121 -2.052786,-1.81905 -1.144756,-0.73324 -2.394016,-1.25332 -3.692162,-1.65506 -1.906082,-0.58353 -3.873484,-0.89142 -5.844733,-1.16986 -2.416231,-0.31609 -4.835647,-0.60414 -7.272925,-0.6973 -2.900645,-0.0968 -0.500973,0.007 -0.0053,-0.0697 0.358582,-0.0552 -0.725599,-5.3e-4 -1.088398,-5.3e-4 -2.161905,-5.3e-4 -4.323807,-2.6e-4 -6.48571,-0.003 -1.958697,-0.002 -3.919455,0.0133 -5.876546,-0.0743 -1.237728,-0.0806 -2.470972,-0.22321 -3.711068,-0.26447 -1.041022,-0.0578 -2.080551,-0.12341 -3.099004,-0.36157 -0.855273,-0.19759 -1.698353,-0.4635 -2.494287,-0.83653 -0.758332,-0.41065 -1.485413,-0.90198 -2.049598,-1.56295 -0.454174,-0.61002 -0.8162176,-1.27649 -0.8446191,-2.05558 0.012914,-0.72337 0.031511,-1.45229 0.1812179,-2.16275 0.186113,-0.75652 0.4636582,-1.48563 0.9843552,-2.08071 1.253622,-1.20956 2.455554,-0.99678 4.336798,-0.89056 0.653923,0.0207 1.308476,0.0595 1.948964,0.20363 0.832518,0.1829 1.666666,0.3731 2.474097,0.64872 0.976981,0.3513 1.942908,0.73251 2.858016,1.22745 1.287574,0.68491 2.565102,1.39141 3.77233,2.2125 1.658126,1.09382 3.234767,2.29622 4.719781,3.61746 2.340869,2.0436 4.702313,4.08358 6.749,6.43083 1.565034,1.80399 3.139178,3.60691 4.565531,5.52395 0.738708,0.97649 1.498716,1.93787 2.104625,3.00588 0.645089,0.94726 1.203375,1.94511 1.751036,2.95126 0.418497,0.74233 0.845394,1.48357 1.180881,2.26825 0.255272,0.56037 0.501713,1.12731 0.719124,1.70296 0.157988,0.49932 0.401558,0.96615 0.61269,1.4441 0.551185,0.91339 0.195792,0.18954 -2.3646,0.36322 -0.02609,0.002 0.05838,0.0186 0.07842,0.002 0.09823,-0.0823 0.130892,-0.32356 0.151378,-0.41176 0.02827,-0.12171 0.05397,-0.24401 0.08095,-0.36601 0.186388,-0.77577 0.339569,-1.55793 0.523338,-2.33443 0.168854,-0.70484 0.312621,-1.41625 0.414932,-2.13391 0.121571,-0.78207 0.235077,-1.5626 0.322906,-2.34939 0.184742,-1.10128 0.34344,-2.20426 0.495525,-3.31031 0.131842,-1.05217 0.255063,-2.10299 0.30631,-3.16314 0.103894,-1.52278 0.09563,-3.04612 0.06932,-4.57181 0.0033,-1.24601 7.94e-4,-2.49231 -0.03729,-3.73786 -0.05526,-1.45663 -0.177734,-2.9074 -0.340331,-4.35601 -0.123915,-1.65526 -0.297151,-3.30837 -0.587709,-4.94352 -0.32004,-1.61464 -0.638214,-3.24035 -1.205854,-4.78996 -0.59327,-1.58225 -1.134909,-3.19372 -1.942328,-4.68404 -0.73819,-1.39423 -1.532807,-2.75453 -2.425252,-4.05713 -1.227754,-1.81943 -2.468378,-3.65162 -4.03002,-5.20689 -1.375973,-1.32873 -2.762737,-2.65229 -4.27569,-3.82642 -0.871575,-0.63898 -1.749433,-1.26445 -2.672215,-1.82835 -0.790416,-0.46133 -1.609011,-0.87236 -2.462647,-1.20499 -0.303074,-0.10868 -0.425735,-0.16692 -0.738843,-0.22546 -0.121891,-0.0228 -0.493012,-0.0427 -0.369073,-0.0467 4.236635,-0.1361 2.379329,-0.0317 1.451597,0.0153 -0.782839,0.099 -1.573326,0.21202 -2.328807,0.443 -1.201695,0.499 -2.356344,1.11783 -3.459383,1.80623 -1.247142,0.83212 -2.399348,1.81138 -3.355659,2.97199 -1.194932,1.42536 -2.214175,2.99001 -3.1432,4.59956 -0.667629,1.21124 -1.284517,2.44687 -1.840032,3.71405 -0.594047,1.38864 -1.13043,2.80447 -1.55666,4.25424 -0.394601,1.50672 -0.732367,3.02697 -1.073072,4.54661 -0.258955,1.53901 -0.511426,3.08066 -0.669771,4.63394 -0.279481,2.58243 -0.477082,5.17724 -0.434952,7.77696 0.0086,1.85828 0.02597,3.71657 0.04515,5.57477 0.03506,1.71206 0.106155,3.42298 0.25815,5.12916 0.09949,1.2764 0.143781,2.55666 0.273733,3.83094 0.01927,0.93821 0.05077,1.87731 0.166662,2.8095 0.132143,1.12303 0.234582,2.24723 0.334993,3.37329 0,0 -2.6441059,0.0264 -2.6441059,0.0264 z"
       inkscape:connector-curvature="0" />
    <path
       style="fill:#ffffff;fill-opacity:1;fill-rule:nonzero;stroke:none;stroke-width:0.26458332"
       id="path85"
       d="m 92.996492,146.29394 c -0.781994,0.51389 -1.544645,1.04648 -2.230453,1.6843 -0.59254,0.54936 -1.116685,1.15935 -1.622576,1.78713 -0.447373,0.62074 -0.96099,1.18749 -1.390028,1.82131 -0.611669,0.88468 -1.063464,1.86297 -1.498026,2.84281 -0.362061,0.69375 -0.533675,1.44784 -0.722185,2.19874 -0.194628,0.75523 -0.240065,1.53754 -0.274429,2.31347 -0.06638,0.82121 0.02651,1.62744 0.241432,2.41945 0.189225,0.79583 0.570974,1.51065 1.02465,2.18332 0.50824,0.76375 1.219692,1.32806 1.96274,1.84717 0.693914,0.46562 1.452234,0.75025 2.269384,0.89568 0.383447,0.0592 0.772072,0.0727 1.159264,0.084 0.131307,0.004 0.525372,0.009 0.394012,0.008 -2.393929,-0.0182 -2.922738,0.0755 -1.745552,-0.0835 0.856441,-0.13386 1.680769,-0.40594 2.464679,-0.77078 0.848701,-0.43687 1.614387,-1.0148 2.355448,-1.61169 0.585353,-0.43718 1.049639,-1.00274 1.506672,-1.56623 0.448194,-0.59522 0.871323,-1.21319 1.189863,-1.88818 0.324297,-0.61499 0.496811,-1.28695 0.698603,-1.94708 0.311804,-0.96319 0.332748,-1.98221 0.3717,-2.9846 0.06999,-1.1096 0.01344,-2.21119 -0.09573,-3.3149 -0.189196,-1.32902 -0.860952,-2.52451 -1.514293,-3.67567 -0.497824,-0.92899 -1.102659,-1.78851 -1.783813,-2.59036 -0.876421,-1.00433 -1.935464,-1.81916 -3.027095,-2.57308 -1.10721,-0.77928 -2.334765,-1.38783 -3.606715,-1.84667 -0.875612,-0.3407 -1.784004,-0.54813 -2.717012,-0.63502 -0.128939,-0.007 -0.257786,-0.0158 -0.386821,-0.0206 -0.414051,-0.0154 -1.485164,-0.0226 -0.959667,-0.0172 3.783235,0.0394 2.213321,-0.0499 1.210442,0.19347 -0.835858,0.23893 -1.471366,0.76335 -1.969148,1.45824 -0.399119,0.71614 -0.674682,1.48491 -0.834565,2.28694 -0.15131,0.56357 -0.265205,1.13276 -0.322715,1.71331 -0.05207,1.01478 -0.154149,2.02587 -0.21918,3.04018 -0.0608,0.94506 -0.08315,1.89172 -0.09082,2.8385 -0.03115,0.45503 0.0097,0.89206 0.104402,1.33582 0,0 -2.639663,0.0552 -2.639663,0.0552 v 0 c -0.09778,-0.46349 -0.138817,-0.91959 -0.102317,-1.39428 0.01582,-0.95153 0.03749,-1.90336 0.109905,-2.8526 0.06977,-1.01583 0.155215,-2.03099 0.189172,-3.04875 0.05747,-0.58952 0.166677,-1.1692 0.32939,-1.73933 0.166489,-0.83639 0.458063,-1.63186 0.84714,-2.39162 0.483587,-0.75389 1.131121,-1.34289 1.989045,-1.644 1.729814,-0.52235 3.572881,-0.27252 5.356146,-0.19766 0.930246,0.11696 1.832017,0.35996 2.705489,0.70318 1.268587,0.49799 2.50077,1.11619 3.609932,1.91243 1.096849,0.78018 2.161654,1.62563 3.052681,2.64047 0.67361,0.82141 1.265729,1.70145 1.76627,2.63979 0.65868,1.18647 1.32965,2.42724 1.53488,3.78398 0.10507,1.11548 0.14689,2.2298 0.0818,3.35015 -0.0378,1.02364 -0.0412,2.06768 -0.34953,3.05416 -0.21065,0.66769 -0.36544,1.35805 -0.69611,1.98173 -0.31534,0.70011 -0.75168,1.33355 -1.20344,1.95223 -0.460563,0.57846 -0.912789,1.1765 -1.509146,1.62459 -0.757415,0.59591 -1.516499,1.19996 -2.362129,1.66818 -0.779166,0.4026 -1.61427,0.68947 -2.478019,0.84733 -1.638662,0.31384 -3.374255,0.18831 -5.027792,-0.0177 -0.820563,-0.18788 -1.584026,-0.51894 -2.274795,-1.00645 -0.751816,-0.54971 -1.463056,-1.15388 -1.976122,-1.9429 -0.454822,-0.70208 -0.830639,-1.44858 -1.02353,-2.26842 -0.2163,-0.8195 -0.31504,-1.65186 -0.246481,-2.50024 0.0368,-0.79332 0.08197,-1.59336 0.267838,-2.36819 0.201797,-0.76294 0.36562,-1.53631 0.739288,-2.24233 0.443063,-0.98771 0.898133,-1.97908 1.492549,-2.88643 0.420171,-0.65081 0.938186,-1.21707 1.387493,-1.84662 0.51407,-0.63576 1.033653,-1.26381 1.634636,-1.8217 0.683405,-0.65687 1.441812,-1.1998 2.220558,-1.73789 0,0 2.632429,0.26736 2.632429,0.26736 z"
       inkscape:connector-curvature="0" />
    <path
       style="fill:#ffffff;fill-opacity:1;fill-rule:nonzero;stroke:none;stroke-width:0.26458332"
       id="path87"
       d="m 106.85616,108.6502 c -0.0695,0.97061 -0.24251,1.9278 -0.37142,2.89113 -0.12655,0.87594 -0.24638,1.75502 -0.40061,2.62686 -0.19463,1.1725 -0.40403,2.34209 -0.60242,3.51392 -0.14951,1.04515 -0.40752,2.0698 -0.60193,3.10688 -0.22856,1.18763 -0.39856,2.38541 -0.6068,3.57624 -0.17722,1.11944 -0.3801,2.23418 -0.55831,3.35362 -0.14511,1.25032 -0.35965,2.49042 -0.54149,3.73555 -0.22131,1.28614 -0.3779,2.58133 -0.58209,3.86997 -0.18276,1.16949 -0.27865,2.35017 -0.43999,3.52225 -0.13044,1.22033 -0.33206,2.43114 -0.47966,3.64924 -0.0995,1.17876 -0.28,2.34688 -0.45363,3.5162 -0.1217,0.98966 -0.30001,1.9703 -0.40061,2.96272 -0.0891,1.11959 -0.28248,2.22689 -0.41017,3.34245 -0.11871,1.05607 -0.17336,2.11755 -0.19691,3.17954 0.0348,0.73556 -0.0997,1.45844 -0.17142,2.18723 -0.06869,0.77529 -0.116318,1.54876 -0.0204,2.32233 0.0826,0.58858 0.12309,1.17535 0.27635,1.75059 0.22096,0.90241 0.5736,1.74872 0.97167,2.58394 0.31638,0.54543 0.60669,1.10427 1.12514,1.4812 0.0759,0.037 0.14758,0.0846 0.22782,0.11107 0.13909,0.0458 0.26843,0.0309 0.4106,0.0277 -0.80492,-0.009 -1.61032,0.002 -2.41478,-0.0265 -0.0639,-0.002 0.12718,-0.0246 0.18436,-0.0533 0.0679,-0.034 0.12367,-0.0882 0.18552,-0.13222 0.3756,-0.35647 0.71509,-0.75396 1.00894,-1.18038 0.45702,-0.637 0.93347,-1.25945 1.41787,-1.87583 0.543,-0.70646 1.07303,-1.42277 1.61577,-2.12939 0.6097,-0.81313 1.16333,-1.66523 1.72379,-2.5124 0.52703,-0.74301 1.04801,-1.48982 1.56067,-2.24292 0.60038,-0.85532 1.1493,-1.74358 1.65694,-2.65663 0.55546,-1.03581 1.13878,-2.0561 1.71074,-3.08292 0.90129,-1.46128 1.62105,-3.0218 2.41115,-4.54334 0.61052,-1.13703 1.07514,-2.34327 1.60339,-3.51895 0.36236,-0.79574 0.79871,-1.55391 1.203,-2.32828 0.2747,-0.51701 0.5411,-1.0402 0.88348,-1.51671 2.62541,-2.66387 2.98112,0.024 3.02233,1.19369 0.009,0.5908 -0.002,1.18167 -0.008,1.77245 -0.0197,0.70694 0.0164,1.41495 -0.0435,2.11994 -0.13066,0.81538 -0.15137,1.64154 -0.24109,2.46086 -0.18748,1.28519 -0.33455,2.57473 -0.43819,3.86937 -0.13511,0.96636 -0.22857,1.93776 -0.35007,2.90562 -0.22319,1.18124 -0.32832,2.3796 -0.50483,3.56721 -0.14,0.87832 -0.23325,1.76226 -0.35867,2.64258 -0.12,0.8806 -0.15062,1.76723 -0.2768,2.64682 -0.0911,0.5827 -0.14431,1.16982 -0.17887,1.75824 -0.001,0.0181 0.0141,0.0551 -0.004,0.0541 -2.78082,-0.14949 -2.88158,0.46149 -2.39841,-1.10007 0.14927,-0.69142 0.53725,-1.28538 0.85312,-1.90723 0.30445,-0.60559 0.65795,-1.1835 1.03335,-1.7472 0.40638,-0.51157 0.83879,-1.00179 1.27114,-1.4914 0.51239,-0.51923 1.00175,-1.06107 1.52031,-1.57403 0.52855,-0.53983 1.09247,-1.03794 1.67619,-1.51644 0.59351,-0.54033 1.24078,-1.00695 1.905,-1.45487 1.32359,-0.94813 2.67194,-1.8608 4.00476,-2.79566 0.94738,-0.7216 1.96053,-1.34841 2.9427,-2.02016 1.06561,-0.72066 2.11245,-1.46947 3.20079,-2.15584 0.55864,-0.36267 1.07843,-0.78084 1.62385,-1.1624 0.9375,-0.49078 2.94137,-0.73259 3.46822,0.26482 0.14318,0.47415 -0.23618,0.75626 -0.56449,1.02182 -0.59594,0.45816 -1.19742,0.90785 -1.80817,1.34626 -0.78092,0.63013 -1.56171,1.26178 -2.32925,1.90847 -0.52423,0.47962 -0.96196,1.04175 -1.4647,1.54238 -0.60895,0.51641 -1.1651,1.08787 -1.67977,1.69757 -0.90256,0.95414 -1.74285,1.9632 -2.59395,2.96288 -0.97088,1.11725 -1.85999,2.29999 -2.75351,3.47871 -0.75108,0.98579 -1.48507,1.9889 -2.16051,3.02841 -0.55408,0.84481 -1.0475,1.73021 -1.42445,2.66811 -0.22824,0.64959 -0.3747,1.33559 -0.22588,2.01584 0.30424,0.68417 0.97296,0.83938 1.64984,0.94411 1.08347,0.13268 4.24417,0.0834 -0.48064,0.0807 0.60161,0.0356 1.19176,-0.0724 1.78451,-0.15435 0.88532,-0.10671 1.7411,-0.33398 2.59655,-0.57644 1.39947,-0.41119 2.77651,-0.89181 4.14899,-1.3845 1.03825,-0.37056 2.07773,-0.73245 3.10311,-1.13703 1.32009,-0.60585 2.61118,-1.27994 3.88682,-1.97489 1.0214,-0.57521 1.97299,-1.26043 2.91731,-1.95191 1.36294,-1.03734 2.64735,-2.17311 3.86427,-3.37731 0.68673,-0.70941 1.20768,-1.55409 1.70124,-2.4034 0.5119,-0.87538 0.87606,-1.81954 1.1599,-2.78988 0.22038,-0.81001 0.2935,-1.64875 0.39671,-2.47918 0.16334,-1.01197 0.11011,-2.02215 -0.0569,-3.02745 -0.11139,-0.83273 -0.47804,-1.59694 -0.91587,-2.3042 -0.53429,-0.8375 -1.31999,-1.4307 -2.19489,-1.8732 -0.39703,-0.15413 -0.32423,-0.1585 -0.74373,-0.19537 -0.12168,-0.0107 -0.48835,-0.0142 -0.36621,-0.0131 3.62955,0.0315 2.57965,-0.1478 1.53915,0.26012 -0.78415,0.35249 -1.29165,1.04467 -1.77182,1.72847 -0.43267,0.64679 -0.82978,1.31741 -1.19362,2.00513 -0.40249,0.80199 -0.74412,1.63158 -1.12971,2.44236 -0.54089,1.17307 -1.02755,2.36924 -1.51174,3.56646 -0.60161,1.41478 -1.0806,2.87584 -1.53674,4.34252 -0.37789,1.18019 -0.68112,2.37928 -0.98002,3.58094 -0.22856,1.04046 -0.4551,2.08306 -0.60876,3.13771 -0.13233,0.93011 -0.11242,1.8711 -0.17448,2.80626 -0.0905,0.90988 -0.16156,1.82073 -0.19875,2.73436 0.0216,0.83423 0.20585,1.64391 0.48414,2.42655 0.39478,0.92455 0.88784,1.80933 1.64949,2.47606 0.43002,0.27324 0.91684,0.4581 1.42932,0.4897 0.13418,0.008 0.5377,-0.005 0.40327,-0.007 -0.73714,-0.01 -1.47435,-0.0111 -2.21153,-0.0166 0.78741,-0.0489 1.46577,-0.43757 2.13085,-0.82533 0.75119,-0.48112 1.45011,-1.0382 2.10417,-1.64352 0.83678,-0.81309 1.59001,-1.7063 2.33478,-2.60281 0.80072,-0.97931 1.56559,-1.98831 2.28231,-3.03065 1.19853,-1.67279 2.07189,-3.54318 2.98323,-5.37996 0.6415,-1.35215 1.23447,-2.72105 1.71635,-4.13751 0.38722,-1.36929 0.69335,-2.76208 0.9735,-4.15705 0.19376,-0.97712 0.26518,-1.97099 0.29435,-2.96478 0.0247,-1.02046 0.0179,-2.04131 0.0108,-3.06193 0.029,-0.75273 -0.0213,-1.49 -0.32442,-2.18607 -0.51314,-0.76344 -2.31485,-0.77206 2.27708,-0.0863 0.0816,0.0122 -0.0894,0.13974 -0.1209,0.216 -0.0857,0.20761 -0.11689,0.41934 -0.16098,0.63776 -0.11242,0.79695 -0.23982,1.5904 -0.31058,2.39252 -0.0658,0.85044 -0.0495,1.70304 -0.1093,2.55353 -0.16063,2.09881 -0.31061,4.19795 -0.41339,6.30053 -0.0447,1.88007 -0.20748,3.75406 -0.35018,5.62858 -0.12281,1.92008 -0.25759,3.83907 -0.38688,5.75873 -0.10904,1.83025 -0.29989,3.65607 -0.51157,5.47709 -0.1833,1.77957 -0.43918,3.54877 -0.73211,5.31321 -0.39442,2.41607 -0.85807,4.82036 -1.40852,7.2057 -0.29222,1.35493 -0.69416,2.68417 -1.13124,3.99866 -0.44677,1.31521 -1.0222,2.57923 -1.57005,3.8537 -0.47864,1.14647 -1.13764,2.19563 -1.84164,3.21389 -0.81548,1.09755 -1.5546,2.2517 -2.47186,3.26896 -0.52685,0.56834 -1.09015,1.09527 -1.73459,1.52645 -0.6932,0.40975 -1.35344,0.85669 -2.13102,1.08443 -1.60173,0.31201 -3.25542,0.17726 -4.87202,0.15734 -0.66014,-0.0777 -1.21529,-0.45041 -1.74837,-0.82086 -0.65139,-0.38586 -1.23879,-0.86109 -1.8032,-1.3625 -0.60609,-0.46697 -1.13605,-1.03086 -1.63605,-1.60788 -0.82901,-1.05275 -1.63504,-2.12778 -2.41825,-3.21588 -0.71626,-0.97909 -1.28994,-2.04885 -1.91263,-3.08689 -0.40854,-0.79562 -0.83921,-1.5777 -1.23075,-2.38206 -0.61395,-1.35405 -1.08073,-2.7668 -1.54931,-4.17599 -0.40302,-1.22715 -0.67602,-2.49151 -0.84354,-3.77094 -0.0883,-0.99684 -0.10105,-1.99829 -0.10479,-2.99839 0.0168,-0.90804 -0.0273,-1.81821 0.0395,-2.72429 0.12488,-1.06138 0.4546,-2.08085 0.74068,-3.10589 0.29679,-0.93486 0.72427,-1.82164 1.16584,-2.69523 0.5708,-1.01135 1.10969,-2.03968 1.75306,-3.00752 0.758,-1.05086 1.60994,-2.0287 2.44657,-3.01681 0.59542,-0.68486 0.30081,-0.3495 0.8835,-1.00637 0,0 2.60853,0.1906 2.60853,0.1906 v 0 c -0.5871,0.65188 -0.29101,0.31879 -0.88784,0.99963 -0.83414,0.97616 -1.66856,1.95161 -2.42624,2.98933 -0.65514,0.94987 -1.19368,1.96768 -1.7586,2.9725 -0.42563,0.86327 -0.85348,1.72927 -1.15245,2.6466 -0.28952,1.00591 -0.62971,2.00576 -0.7408,3.05215 -0.0637,0.89998 -0.0268,1.80294 -0.0376,2.70462 10e-4,0.98918 -2.7e-4,1.98051 0.0978,2.96594 0.15479,1.2638 0.4239,2.50882 0.81626,3.72134 0.45786,1.40424 0.94327,2.80008 1.57498,4.13741 0.40247,0.79161 0.81877,1.57548 1.22973,2.36265 0.60817,1.03568 1.17782,2.09686 1.8931,3.06524 0.77855,1.08791 1.58578,2.15841 2.43998,3.18801 0.50667,0.56372 1.04491,1.10192 1.63947,1.57366 0.5655,0.48846 1.15941,0.93919 1.79836,1.32866 0.53514,0.34482 1.08681,0.65528 1.73807,0.68835 -4.73822,0.0419 -1.43959,0.0739 -0.3567,-0.11643 0.79142,-0.15451 1.4325,-0.59619 2.11996,-0.99879 0.65282,-0.39486 1.20711,-0.9106 1.73588,-1.45847 0.94189,-0.99106 1.69357,-2.13152 2.50424,-3.22886 0.68708,-1.00631 1.3184,-2.0517 1.8195,-3.16477 0.55373,-1.26411 1.1288,-2.51956 1.56471,-3.83125 0.44077,-1.30824 0.85257,-2.62971 1.16732,-3.97436 0.58094,-2.3715 1.04983,-4.77138 1.42255,-7.18426 0.24554,-1.76748 0.51547,-3.53145 0.71668,-5.30474 0.21817,-1.81601 0.37033,-3.6408 0.50169,-5.46484 0.13988,-1.92004 0.26261,-3.84083 0.40907,-5.76032 0.14546,-1.87264 0.24415,-3.74685 0.33167,-5.62288 0.12523,-2.10067 0.29962,-4.19861 0.3834,-6.30155 0.0379,-0.8538 0.0234,-1.70946 0.0917,-2.56192 0.073,-0.81086 0.20387,-1.61255 0.30728,-2.41966 0.0187,-0.10027 0.19466,-0.99909 0.27693,-1.01224 2.11446,-0.33792 2.44295,-0.89966 3.01194,0.19377 0.2776,0.73711 0.35768,1.50159 0.3121,2.28697 -0.002,1.02372 0.005,2.04751 -0.005,3.07117 -0.0359,1.00914 -0.1158,2.01785 -0.3174,3.00923 -0.29507,1.40252 -0.6051,2.80431 -0.96413,4.19139 -0.50147,1.42746 -1.10467,2.80818 -1.76738,4.16942 -0.92321,1.83503 -1.77586,3.72285 -2.94731,5.41722 -0.71384,1.05124 -1.47186,2.07264 -2.27919,3.0542 -0.74091,0.9087 -1.49981,1.80698 -2.33013,2.63576 -0.64767,0.62717 -1.34761,1.19585 -2.09379,1.70248 -0.67102,0.41087 -1.35939,0.82935 -2.14949,0.95372 -1.67073,0.0114 -3.44391,0.39975 -4.85429,-0.65043 -0.74219,-0.73058 -1.24988,-1.64531 -1.64906,-2.60254 -0.28982,-0.81358 -0.47958,-1.66073 -0.49616,-2.52811 0.0443,-0.91546 0.11251,-1.82909 0.21206,-2.7403 0.0647,-0.9421 0.0197,-1.89111 0.16767,-2.82733 0.16046,-1.06288 0.39103,-2.1136 0.62085,-3.16317 0.30377,-1.20716 0.59568,-2.41568 0.99672,-3.59589 0.46489,-1.46803 0.9395,-2.93686 1.51598,-4.36492 0.49221,-1.19852 0.99802,-2.39086 1.51727,-3.5778 0.36513,-0.82155 0.72546,-1.64615 1.11094,-2.45772 0.36823,-0.69767 0.76227,-1.38099 1.20332,-2.036 0.48838,-0.71647 0.99948,-1.45471 1.7785,-1.8782 0.04,-0.0179 0.68343,-0.30999 0.72874,-0.31246 1.34221,-0.0734 2.82128,-0.30858 4.08007,0.2865 0.87971,0.50086 1.66891,1.13939 2.20488,2.0131 0.44114,0.74308 0.81605,1.53835 0.9195,2.40578 0.15841,1.0294 0.21359,2.06597 0.0555,3.10096 -0.10017,0.84556 -0.16457,1.69993 -0.40073,2.52216 -0.28926,0.98903 -0.64017,1.95937 -1.16197,2.8528 -0.50038,0.86991 -1.01684,1.74439 -1.71475,2.47331 -1.23389,1.20731 -2.53693,2.34058 -3.89311,3.40894 -0.92532,0.72104 -1.87454,1.41178 -2.89616,1.9924 -1.27608,0.70012 -2.58398,1.34207 -3.87663,2.01074 -1.03875,0.39366 -2.07459,0.79003 -3.13006,1.13988 -1.36985,0.49525 -2.74424,0.97912 -4.13745,1.40434 -0.85318,0.24141 -1.69311,0.50657 -2.57686,0.61773 -0.59648,0.0744 -1.185,0.21843 -1.78898,0.18857 -1.5694,-5.3e-4 -3.17905,0.0887 -4.74443,-0.13135 -0.75628,-0.17267 -1.40927,-0.46964 -1.68161,-1.25447 -0.13784,-0.73371 -0.0109,-1.46836 0.23708,-2.16883 0.38067,-0.95602 0.87509,-1.86207 1.44633,-2.71792 0.67371,-1.04664 1.40247,-2.06117 2.15784,-3.04953 0.90943,-1.17348 1.80216,-2.36047 2.76396,-3.49229 0.85347,-0.98956 1.66959,-2.01179 2.56845,-2.96062 0.50783,-0.62119 1.05504,-1.21621 1.67403,-1.72847 0.52841,-0.48339 0.95479,-1.06382 1.47363,-1.55775 0.77113,-0.65382 1.57173,-1.27161 2.34224,-1.92615 0.59647,-0.44232 1.19176,-0.88635 1.78146,-1.33619 0.1735,-0.13885 0.64332,-0.3571 0.54709,-0.62436 -0.14677,-0.13702 -0.40511,-0.16669 -0.33229,-0.16856 4.64793,-0.11973 3.03654,-0.11816 2.15717,0.007 -0.5783,0.341 -1.07493,0.81045 -1.64527,1.1658 -1.10538,0.66256 -2.15026,1.41831 -3.21704,2.14019 -0.97523,0.6807 -1.98584,1.30852 -2.93983,2.01917 -1.33634,0.9284 -2.69932,1.81878 -4.00019,2.79771 -0.64545,0.4546 -1.30121,0.89554 -1.88073,1.43511 -0.57938,0.4749 -1.15699,0.94789 -1.67422,1.49248 -0.51885,0.5085 -1.00456,1.04759 -1.52196,1.55803 -0.43419,0.47253 -0.82868,0.97974 -1.25937,1.45541 -0.3785,0.55182 -0.73681,1.11621 -1.04139,1.71293 -0.30453,0.6102 -0.69566,1.18653 -0.83955,1.86324 -0.30341,0.99413 -0.57423,3.22209 -2.90615,0.94272 0.0738,-0.58967 0.096,-1.18576 0.20206,-1.77174 0.12746,-0.87929 0.17184,-1.76444 0.28208,-2.64605 0.12393,-0.88151 0.21498,-1.76723 0.36292,-2.64536 0.18529,-1.18323 0.30573,-2.37664 0.50594,-3.55804 0.105,-0.96758 0.21481,-1.93389 0.359,-2.89675 0.1119,-1.29531 0.26463,-2.58669 0.42309,-3.87704 0.0939,-0.81662 0.0969,-1.64207 0.23393,-2.45451 0.0631,-0.69776 0.0211,-1.3997 0.0353,-2.09969 0.007,-0.58655 0.0201,-1.1732 0.0108,-1.75979 -0.008,-0.20355 -0.0103,-0.3886 -0.0373,-0.59063 -0.011,-0.0827 -0.0217,-0.1662 -0.0458,-0.24607 -0.0157,-0.052 -0.12658,-0.14059 -0.0725,-0.14584 3.01015,-0.29232 3.2851,-0.43388 2.42663,-0.0439 -0.37795,0.43337 -0.60928,0.97258 -0.895,1.46639 -0.40223,0.77244 -0.84915,1.52167 -1.21201,2.31451 -0.55013,1.17528 -1.01951,2.38893 -1.63709,3.53181 -0.80787,1.51053 -1.51152,3.07772 -2.38546,4.55148 -0.57824,1.02318 -1.15474,2.04734 -1.71464,3.08047 -0.50161,0.9225 -1.0426,1.8197 -1.64127,2.68298 -0.51628,0.75236 -1.03171,1.50453 -1.57381,2.2387 -0.56568,0.84766 -1.10735,1.7117 -1.71254,2.53211 -0.54944,0.70446 -1.07614,1.42626 -1.62413,2.13194 -0.48364,0.60438 -0.93115,1.23395 -1.39365,1.85391 -0.28596,0.45446 -0.64173,0.86046 -1.01312,1.24605 -0.92008,1.02306 -2.77027,0.77238 -3.872286,0.0876 -0.49073,-0.44567 -0.814075,-1.01588 -1.119084,-1.59926 -0.397616,-0.85202 -0.73733,-1.7208 -0.981279,-2.63083 -0.158141,-0.58715 -0.197942,-1.18694 -0.278225,-1.78854 -0.08997,-0.79313 -0.03704,-1.58424 0.02772,-2.37856 0.06656,-0.72334 0.192537,-1.4403 0.172109,-2.16904 0.03169,-1.06994 0.09692,-2.13883 0.221938,-3.20234 0.126489,-1.11354 0.291703,-2.22271 0.385736,-3.33956 0.102026,-0.99706 0.294724,-1.98032 0.411898,-2.97527 0.178951,-1.16673 0.366085,-2.33076 0.44922,-3.5097 0.158006,-1.21855 0.37265,-2.42904 0.489386,-3.65298 0.168072,-1.17303 0.247783,-2.35687 0.433875,-3.52749 0.209282,-1.28684 0.386232,-2.57823 0.597252,-3.86492 0.17137,-1.24807 0.37857,-2.49054 0.54055,-3.7398 0.17636,-1.12056 0.34949,-2.24157 0.53971,-3.35965 0.22208,-1.18936 0.39363,-2.38884 0.62714,-3.57654 0.18596,-1.03685 0.40883,-2.0657 0.5813,-3.10468 0.20737,-1.17034 0.42843,-2.33755 0.6143,-3.51173 0.13416,-0.87252 0.24417,-1.74796 0.38375,-2.61909 0.12927,-0.95997 0.32592,-1.91144 0.36099,-2.88234 0,0 2.6441,0.0264 2.6441,0.0264 z"
       inkscape:connector-curvature="0" />
    <path
       style="fill:#ffffff;fill-opacity:1;fill-rule:nonzero;stroke:none;stroke-width:0.26458332"
       id="path89"
       d="m 169.42614,123.60335 c -0.0158,0.9515 -0.008,1.9032 -0.004,2.85477 -0.0349,0.62258 0.0252,1.22919 0.12631,1.84142 0.0963,0.34579 0.0468,0.17175 0.14842,0.52212 0,0 -2.64699,0.074 -2.64699,0.074 v 0 c -0.10349,-0.36378 -0.0537,-0.17938 -0.14908,-0.55328 -0.10129,-0.62647 -0.15494,-1.24828 -0.11574,-1.88431 0.004,-0.95157 0.0122,-1.90327 -0.004,-2.85477 0,0 2.64438,0 2.64438,0 z"
       inkscape:connector-curvature="0" />
    <path
       style="fill:#ffffff;fill-opacity:1;fill-rule:nonzero;stroke:none;stroke-width:0.26458332"
       id="path91"
       d="m 170.9629,141.14832 c -1.08114,0.0796 -2.14875,0.26047 -3.19076,0.55699 -0.95082,0.25611 -1.82503,0.70629 -2.7029,1.13962 -1.04202,0.49074 -1.94414,1.21211 -2.84518,1.91792 -0.64504,0.50536 -1.18226,1.12301 -1.66127,1.78374 -0.37739,0.56966 -0.63822,1.19042 -0.86987,1.82912 -0.27805,0.70137 -0.35043,1.44896 -0.39893,2.19459 -0.0331,0.67593 -0.0298,1.35288 -0.0275,2.02939 0.014,0.55364 -0.0238,1.10932 0.0359,1.66043 0.0554,0.61061 0.24567,1.19372 0.3672,1.792 0.17326,0.5876 0.38319,1.16276 0.62293,1.72606 0.16059,0.48047 0.38364,0.93096 0.64748,1.36211 0.34673,0.49458 0.77323,0.94435 1.27061,1.28857 0.47117,0.27573 1.01047,0.31286 1.54265,0.33575 -0.85955,0.0174 1.65604,0.0122 0.79879,0.006 -3.94686,-0.0297 -2.88613,0.14547 -1.94275,-0.11315 0.58703,-0.19317 1.15179,-0.44044 1.71407,-0.69506 0.9507,-0.45197 1.86225,-0.98126 2.76862,-1.51528 0.91606,-0.58327 1.83199,-1.16781 2.73164,-1.77621 0.80177,-0.52941 1.58455,-1.0863 2.37406,-1.63343 0.728,-0.48576 1.42167,-1.01886 2.1172,-1.54945 0.97434,-0.81933 1.92554,-1.66557 2.86014,-2.52981 0.6391,-0.56117 1.23846,-1.16443 1.8606,-1.74362 0.47878,-0.48314 0.97615,-0.94713 1.46151,-1.42352 0.3398,-0.33516 0.74081,-0.59746 1.16421,-0.81343 1.11223,-0.46725 2.39469,-0.22062 3.55883,-0.14791 0.0705,0.004 0.10984,0.0888 0.16552,0.13216 0.0507,0.0395 0.10242,0.0778 0.15364,0.11668 0.30824,0.35836 0.4485,0.84321 0.5561,1.29655 0.19383,0.5867 0.31506,1.18966 0.38478,1.80247 0.0786,0.50541 -0.052,0.94962 -0.40844,1.31108 -0.32053,0.31602 -0.73566,0.44311 -1.14873,0.58747 -0.53092,0.1618 -1.05963,0.3304 -1.58887,0.49767 -0.76904,0.25216 -1.55587,0.44269 -2.33366,0.66464 -1.16158,0.3717 -2.31899,0.76341 -3.44149,1.24163 -0.82877,0.38017 -1.66634,0.7409 -2.49693,1.11715 -0.85348,0.44171 -1.71525,0.87108 -2.54364,1.35895 -0.70034,0.44331 -1.36174,0.94348 -2.04999,1.40462 -0.81629,0.51479 -1.5799,1.10453 -2.32179,1.72003 -0.6265,0.55247 -1.22592,1.11739 -1.62379,1.85843 -0.20542,0.48491 -0.30391,0.77269 0.269,0.9101 0.56517,0.0701 1.13586,0.0639 1.70424,0.0616 -4.55026,0.27694 -2.00458,-0.0422 -0.95033,-0.18795 0.60578,-0.11912 1.21613,-0.21078 1.8243,-0.31588 0.55387,-0.11065 1.10316,-0.23525 1.6507,-0.37328 0.84957,-0.19008 1.70236,-0.35554 2.56239,-0.49166 0.86794,-0.0954 1.72601,-0.25522 2.58924,-0.38297 0.12414,-0.0145 0.24828,-0.029 0.37242,-0.0435 0,0 2.61131,0.38559 2.61131,0.38559 v 0 c -0.12354,0.0115 -0.24709,0.0231 -0.37063,0.0346 -0.87091,0.11499 -1.73044,0.29773 -2.6062,0.37696 -0.85157,0.12713 -1.69447,0.28939 -2.5339,0.47349 -0.5525,0.1261 -1.09463,0.28377 -1.65377,0.38149 -0.60108,0.14386 -1.22763,0.1654 -1.82495,0.33679 -1.46745,0.16537 -2.68372,0.57937 -4.28468,0.22016 -0.57688,-0.003 -1.17375,0.0174 -1.72713,-0.16729 -0.52171,-0.32068 -0.51276,-0.8177 -0.27098,-1.34452 0.39472,-0.78688 0.9912,-1.38402 1.64951,-1.96055 0.73662,-0.6269 1.49538,-1.23239 2.31218,-1.75268 0.70113,-0.44623 1.35414,-0.96013 2.04963,-1.41433 0.82586,-0.50835 1.70705,-0.91756 2.55629,-1.38464 0.82171,-0.40161 1.67514,-0.73425 2.50237,-1.12438 1.11918,-0.49645 2.28253,-0.87992 3.44118,-1.27277 0.76618,-0.2431 1.55382,-0.40891 2.31566,-0.66711 0.53118,-0.15135 1.04913,-0.34643 1.5821,-0.49048 0.39193,-0.1246 0.8196,-0.21455 1.13366,-0.49347 0.3804,-0.22738 0.47116,-0.62139 0.40677,-1.04478 -0.0692,-0.60147 -0.19451,-1.19118 -0.38449,-1.76695 -0.10668,-0.3938 -0.2198,-0.84257 -0.55323,-1.10517 -0.79308,-0.48559 -2.10487,-0.11113 2.12192,-0.15912 0.0761,-7.9e-4 -0.15229,-0.008 -0.22839,-0.005 -0.26779,0.009 -0.22974,0.0182 -0.49583,0.10529 -0.42121,0.18059 -0.80604,0.42475 -1.15481,0.72061 -0.47515,0.49498 -1.01203,0.9285 -1.47667,1.43549 -0.6333,0.57053 -1.21537,1.19623 -1.8719,1.74189 -0.94122,0.86442 -1.90428,1.70408 -2.86082,2.55141 -0.68543,0.54668 -1.38393,1.07488 -2.10855,1.56779 -0.80208,0.53242 -1.57324,1.11158 -2.38369,1.63231 -0.90006,0.6142 -1.82218,1.19532 -2.73347,1.79255 -0.90656,0.53813 -1.82155,1.06323 -2.75851,1.54629 -0.564,0.24994 -1.11544,0.52863 -1.70385,0.71801 -1.27392,0.54913 -2.74466,0.17618 -4.10693,0.17885 -0.55496,-0.0497 -1.09845,-0.14757 -1.55784,-0.48778 -0.49158,-0.39668 -0.94209,-0.85727 -1.28316,-1.39129 -0.25889,-0.44613 -0.47742,-0.91094 -0.64646,-1.399 -0.24116,-0.57977 -0.45055,-1.17467 -0.62336,-1.77809 -0.12481,-0.6056 -0.3108,-1.19834 -0.36673,-1.81687 -0.0607,-0.5607 -0.0269,-1.12523 -0.0365,-1.6886 5.3e-4,-0.68224 0.002,-1.3648 0.0365,-2.04636 0.047,-0.76946 0.11686,-1.54456 0.39838,-2.26977 0.23889,-0.65934 0.48836,-1.30649 0.87096,-1.90025 0.47884,-0.68922 1.03276,-1.32625 1.683,-1.86 0.91583,-0.70069 1.80526,-1.4541 2.84358,-1.97097 0.8858,-0.43758 1.76078,-0.91126 2.71692,-1.18125 1.03042,-0.3333 2.09947,-0.51621 3.17784,-0.61074 0,0 2.61568,0.3876 2.61568,0.3876 z"
       inkscape:connector-curvature="0" />
    <path
       style="fill:#ffffff;fill-opacity:1;fill-rule:nonzero;stroke:none;stroke-width:0.26458332"
       id="path93"
       d="m 190.27764,151.10455 c -0.82995,0.49613 -1.5498,1.14747 -2.25509,1.80282 -0.596,0.56714 -1.10924,1.20761 -1.63861,1.83452 -0.55975,0.62723 -0.97982,1.35799 -1.3997,2.08145 -0.43631,0.7323 -0.75545,1.51824 -1.07684,2.30475 -0.31864,0.70218 -0.47227,1.44776 -0.54919,2.20992 -0.0354,0.63874 -0.10595,1.28414 0.0665,1.90694 0.1455,0.63916 0.59287,1.07039 1.04836,1.50352 0.50175,0.43423 1.15445,0.55398 1.78758,0.67194 0.3563,0.0511 0.40212,0.0624 0.75564,0.0949 0.11609,0.0107 0.4653,0.026 0.34873,0.0265 -4.12593,0.0163 -2.39289,0.0455 -1.42442,-0.12789 1.04547,-0.21779 2.02957,-0.63437 2.98588,-1.09818 0.53709,-0.26894 1.04496,-0.59204 1.55313,-0.9111 0,0 2.61453,0.26347 2.61453,0.26347 v 0 c -0.50856,0.32763 -1.01707,0.65897 -1.55219,0.94189 -0.96578,0.46564 -1.94403,0.92023 -2.99536,1.15991 -1.59106,0.40463 -3.28826,0.28099 -4.89847,0.0106 -0.66483,-0.14743 -1.31503,-0.32198 -1.8106,-0.81952 -0.48034,-0.46824 -0.90494,-0.97726 -1.05751,-1.64896 -0.16004,-0.65818 -0.10586,-1.32931 -0.0646,-2.00089 0.0816,-0.78686 0.23217,-1.56103 0.56373,-2.28562 0.3289,-0.79391 0.62638,-1.60149 1.07072,-2.34142 0.43042,-0.73313 0.8451,-1.48388 1.40538,-2.12879 0.54428,-0.62482 1.04061,-1.29051 1.64378,-1.86353 0.70875,-0.66354 1.43009,-1.32358 2.24622,-1.85452 0,0 2.63243,0.26737 2.63243,0.26737 z"
       inkscape:connector-curvature="0" />
    <path
       style="fill:#ffffff;fill-opacity:1;fill-rule:nonzero;stroke:none;stroke-width:0.26458332"
       id="path95"
       d="m 190.44227,155.17806 c -0.37831,0.97795 -0.65426,1.9891 -0.91756,3.00261 -0.19908,0.7524 -0.27699,1.52452 -0.31201,2.29938 -0.0255,0.76213 -0.0189,1.52493 -0.0163,2.28737 -0.0346,0.62827 0.0284,1.24127 0.12853,1.85943 0.13182,0.65774 0.36,1.29243 0.6671,1.88794 0.252,0.51627 0.54773,1.00678 0.8846,1.47162 0.39731,0.56486 0.90977,1.00479 1.49466,1.36229 1.05909,0.62101 3.6367,0.47921 -0.76756,0.43789 0.78669,-0.0259 1.34724,-0.53765 1.90163,-1.03868 0.58521,-0.5904 1.11116,-1.2296 1.58006,-1.91483 0.3316,-0.51581 0.60079,-1.06671 0.88218,-1.61036 0.45292,-0.9481 0.83711,-1.9294 1.23119,-2.90334 0.56407,-1.45503 0.95626,-2.96616 1.38875,-4.46303 0.34496,-1.29864 0.63137,-2.61269 0.8433,-3.93963 0.18158,-1.19581 0.32574,-2.3956 0.46597,-3.59675 0.12403,-1.55669 0.30294,-3.1081 0.44081,-4.66355 0.14122,-1.76545 0.13869,-3.53847 0.14393,-5.30838 0.0135,-1.75759 -0.12029,-3.51168 -0.19549,-5.26678 -0.0366,-1.47626 -0.146,-2.94906 -0.23989,-4.4225 -0.0473,-1.09008 -0.12299,-2.17587 -0.23527,-3.26107 -0.0485,-0.41289 -0.0709,-0.82806 -0.10913,-1.24188 -0.0234,-0.25255 -0.0373,-0.33422 -0.0413,-0.33269 -0.0356,0.0136 -0.004,0.0761 -0.006,0.11416 0.88367,0.0212 1.77204,-0.0299 2.65101,0.0635 0.0722,0.008 -0.003,0.14526 -0.004,0.21789 -0.007,0.43149 -0.007,0.86295 -0.007,1.29448 -0.0435,0.79252 0.0865,1.57516 0.16017,2.36142 0.07,1.29439 0.0791,2.59221 0.0939,3.88841 0.008,1.07204 0.0112,2.14414 0.011,3.21622 -0.0152,1.41467 -0.0144,2.82939 -0.0112,4.24413 0.0419,1.26326 -0.022,2.52072 -0.11593,3.77966 -0.0978,1.44089 -0.19794,2.88249 -0.34009,4.3198 -0.14729,1.51139 -0.29975,3.01976 -0.47866,4.52766 -0.17697,1.74164 -0.41329,3.47664 -0.64279,5.21195 -0.14438,1.17954 -0.34843,2.35021 -0.46453,3.53325 -0.11239,0.78636 -0.24032,1.56945 -0.30343,2.36167 -0.10104,0.67851 -0.19467,1.35734 -0.34084,2.02776 -0.30653,1.27261 -0.36537,0.66964 -2.816,0.26839 -0.067,-0.011 0.01,-0.13569 0.0215,-0.20263 0.0186,-0.10777 0.0458,-0.21386 0.0687,-0.3208 0.22693,-0.81963 0.52939,-1.62255 0.90412,-2.38622 0.32376,-0.64759 0.70482,-1.26302 1.0949,-1.87213 0.52245,-0.81369 1.10215,-1.58742 1.73434,-2.31863 0.53685,-0.56716 1.06632,-1.13828 1.65408,-1.6533 1.25587,-1.05612 2.61765,-1.98338 3.97994,-2.89604 1.06742,-0.72502 2.18541,-1.36757 3.31014,-1.99811 0.76309,-0.38344 1.52894,-0.76283 2.31791,-1.09013 0.69913,-0.31136 1.4049,-0.59743 2.14892,-0.77993 0,0 2.61045,0.35769 2.61045,0.35769 v 0 c -0.75238,0.13478 -1.45628,0.41668 -2.14965,0.73498 -0.79346,0.30101 -1.53911,0.70758 -2.31143,1.05817 -1.14072,0.61192 -2.26388,1.25741 -3.34379,1.97201 -1.35302,0.89685 -2.70639,1.80777 -3.9395,2.86648 -0.5864,0.50362 -1.10928,1.06597 -1.6479,1.61924 -0.64388,0.70753 -1.21944,1.47429 -1.74014,2.27668 -0.3828,0.60258 -0.74305,1.21905 -1.08018,1.84811 -0.39091,0.72881 -0.67873,1.51802 -0.89794,2.31412 -0.0189,0.0988 -0.0405,0.19704 -0.0566,0.29628 -0.009,0.0528 0.0358,0.1555 -0.0175,0.15963 -3.73363,0.28866 -2.79204,0.80132 -2.4875,-0.31137 0.14744,-0.65798 0.23697,-1.3242 0.34461,-1.98971 0.0543,-0.7959 0.19759,-1.57928 0.31451,-2.36772 0.11468,-1.18734 0.34096,-2.35935 0.48801,-3.54279 0.23994,-1.73265 0.48575,-3.46582 0.66293,-5.20602 0.16217,-1.50753 0.28149,-3.01878 0.46272,-4.52427 0.14299,-1.43514 0.22467,-2.87507 0.3206,-4.31394 0.0968,-1.25234 0.16041,-2.50286 0.12643,-3.75983 0.004,-1.41478 0.005,-2.82952 -0.009,-4.24424 0.001,-1.07129 0.006,-2.14258 0.001,-3.21386 -0.007,-1.28881 -0.007,-2.5799 -0.11212,-3.86529 -0.0787,-0.79411 -0.20268,-1.58566 -0.16635,-2.38639 -1.4e-4,-0.0932 -0.006,-1.5201 -0.003,-1.52066 0.87586,-0.17965 1.77507,-0.21627 2.6626,-0.32441 0.0472,0.56722 0.0606,1.13717 0.12637,1.703 0.10529,1.08912 0.19175,2.17714 0.21575,3.27171 0.0823,1.47586 0.21782,2.94854 0.23212,4.4274 0.069,1.75925 0.19693,3.51811 0.18693,5.27899 -0.0159,1.7768 -0.006,3.55783 -0.12143,5.33103 -0.15066,1.55547 -0.34825,3.10635 -0.4458,4.66675 -0.11361,1.20937 -0.27912,2.41062 -0.46461,3.61103 -0.2166,1.33596 -0.49064,2.66506 -0.84018,3.97266 -0.44805,1.50128 -0.85372,3.01683 -1.40261,4.48594 -0.37723,0.98475 -0.75461,1.97213 -1.18877,2.93325 -0.29095,0.54983 -0.55625,1.11332 -0.88792,1.64098 -0.47796,0.70207 -1.00898,1.35633 -1.59529,1.97209 -0.55877,0.53849 -1.12111,1.09216 -1.91164,1.23638 -1.70154,-0.0117 -3.05757,0.26363 -4.47247,-0.58736 -0.58844,-0.39606 -1.09916,-0.87835 -1.5075,-1.4622 -0.33631,-0.47956 -0.63166,-0.98494 -0.88352,-1.51418 -0.2977,-0.62883 -0.54519,-1.28104 -0.67429,-1.96705 -0.10009,-0.63186 -0.1569,-1.25958 -0.12155,-1.90083 -10e-4,-0.76684 -0.004,-1.53378 0.0144,-2.30048 0.039,-0.79346 0.11726,-1.58395 0.32588,-2.35365 0.26315,-1.01553 0.55036,-2.02443 0.9036,-3.01291 0,0 2.64201,0.077 2.64201,0.077 z"
       inkscape:connector-curvature="0" />
    <path
       style="fill:#ffffff;fill-opacity:1;fill-rule:nonzero;stroke:none;stroke-width:0.26458332"
       id="path97"
       d="m 198.56791,164.63943 c 0.87143,0.36107 1.77608,0.63133 2.64573,0.9968 0.8984,0.35764 1.82074,0.64604 2.75067,0.90933 1.14095,0.3715 2.29588,0.69445 3.4448,1.03776 1.08497,0.39589 2.1969,0.70871 3.2949,1.06432 1.00343,0.31703 2.01939,0.58874 3.02553,0.89625 1.14039,0.34754 2.25606,0.77658 3.34059,1.27069 1.0724,0.51143 2.1704,0.9879 3.175,1.62621 0.68132,0.49042 1.3485,1.00849 1.95283,1.5921 0.19406,0.23656 0.37903,0.47552 0.58849,0.69857 0,0 -2.64009,0.19394 -2.64009,0.19394 v 0 c -0.19521,-0.22554 -0.3776,-0.46132 -0.58249,-0.67835 -0.60215,-0.56201 -1.25002,-1.07957 -1.93351,-1.53908 -1.01196,-0.60484 -2.08504,-1.10098 -3.15488,-1.59371 -1.09308,-0.48057 -2.21432,-0.89675 -3.35956,-1.23608 -0.99833,-0.30964 -2.01074,-0.57137 -3.00264,-0.90217 -1.10486,-0.35012 -2.21763,-0.67482 -3.31264,-1.05575 -1.14516,-0.33174 -2.28131,-0.69071 -3.42176,-1.0386 -0.94078,-0.27072 -1.87933,-0.55413 -2.78281,-0.93446 -0.87609,-0.34854 -1.77015,-0.64851 -2.65337,-0.97815 0,0 2.62521,-0.32962 2.62521,-0.32962 z"
       inkscape:connector-curvature="0" />
  </g>
</svg>
